<mxfile host="app.diagrams.net" modified="2023-03-04T13:33:42.605Z" agent="5.0 (Windows)" etag="Rhcd_MXcZVqZqxU4HOUW" version="21.0.2" type="github">
  <diagram name="Page-1" id="S8-5whWWjBByGaZXZ5yN">
    <mxGraphModel dx="1222" dy="-4045" grid="1" gridSize="10" guides="1" tooltips="1" connect="1" arrows="1" fold="1" page="1" pageScale="1" pageWidth="827" pageHeight="1169" math="0" shadow="0">
      <root>
        <mxCell id="0" />
        <mxCell id="1" parent="0" />
        <mxCell id="oR9qkToTt6fAtuaVTWsN-1" value="Visiteur" style="shape=umlActor;verticalLabelPosition=bottom;verticalAlign=top;html=1;outlineConnect=0;" parent="1" vertex="1">
          <mxGeometry x="20" y="4880" width="40" height="70" as="geometry" />
        </mxCell>
        <mxCell id="oR9qkToTt6fAtuaVTWsN-2" value="Créer compte" style="ellipse;whiteSpace=wrap;html=1;" parent="1" vertex="1">
          <mxGeometry x="185" y="4770" width="120" height="30" as="geometry" />
        </mxCell>
        <mxCell id="oR9qkToTt6fAtuaVTWsN-3" value="Consulter la liste des evenements" style="ellipse;whiteSpace=wrap;html=1;" parent="1" vertex="1">
          <mxGeometry x="159" y="4820" width="180" height="30" as="geometry" />
        </mxCell>
        <mxCell id="oR9qkToTt6fAtuaVTWsN-4" value="" style="endArrow=none;html=1;rounded=0;entryX=0;entryY=0.5;entryDx=0;entryDy=0;" parent="1" source="oR9qkToTt6fAtuaVTWsN-1" target="oR9qkToTt6fAtuaVTWsN-2" edge="1">
          <mxGeometry width="50" height="50" relative="1" as="geometry">
            <mxPoint x="80" y="4940" as="sourcePoint" />
            <mxPoint x="130" y="4890" as="targetPoint" />
            <Array as="points">
              <mxPoint x="85" y="4785" />
            </Array>
          </mxGeometry>
        </mxCell>
        <mxCell id="oR9qkToTt6fAtuaVTWsN-5" value="" style="endArrow=none;html=1;rounded=0;entryX=0.013;entryY=0.322;entryDx=0;entryDy=0;entryPerimeter=0;" parent="1" source="oR9qkToTt6fAtuaVTWsN-1" target="oR9qkToTt6fAtuaVTWsN-3" edge="1">
          <mxGeometry width="50" height="50" relative="1" as="geometry">
            <mxPoint x="100" y="4960" as="sourcePoint" />
            <mxPoint x="150" y="4910" as="targetPoint" />
            <Array as="points">
              <mxPoint x="105" y="4830" />
            </Array>
          </mxGeometry>
        </mxCell>
        <mxCell id="oR9qkToTt6fAtuaVTWsN-6" style="edgeStyle=orthogonalEdgeStyle;rounded=0;orthogonalLoop=1;jettySize=auto;html=1;" parent="1" source="oR9qkToTt6fAtuaVTWsN-7" edge="1">
          <mxGeometry relative="1" as="geometry">
            <mxPoint x="40" y="4970" as="targetPoint" />
          </mxGeometry>
        </mxCell>
        <mxCell id="oR9qkToTt6fAtuaVTWsN-7" value="Client" style="shape=umlActor;verticalLabelPosition=bottom;verticalAlign=top;html=1;outlineConnect=0;" parent="1" vertex="1">
          <mxGeometry x="20" y="5130" width="40" height="60" as="geometry" />
        </mxCell>
        <mxCell id="oR9qkToTt6fAtuaVTWsN-8" value="Gerer le profil" style="ellipse;whiteSpace=wrap;html=1;" parent="1" vertex="1">
          <mxGeometry x="220" y="5040" width="120" height="30" as="geometry" />
        </mxCell>
        <mxCell id="oR9qkToTt6fAtuaVTWsN-9" value="Gerer panier" style="ellipse;whiteSpace=wrap;html=1;" parent="1" vertex="1">
          <mxGeometry x="220" y="5230" width="120" height="30" as="geometry" />
        </mxCell>
        <mxCell id="oR9qkToTt6fAtuaVTWsN-10" value="Réserver événement" style="ellipse;whiteSpace=wrap;html=1;" parent="1" vertex="1">
          <mxGeometry x="215" y="5170" width="130" height="30" as="geometry" />
        </mxCell>
        <mxCell id="oR9qkToTt6fAtuaVTWsN-12" value="Consulter les evenements" style="ellipse;whiteSpace=wrap;html=1;" parent="1" vertex="1">
          <mxGeometry x="185" y="5100" width="190" height="40" as="geometry" />
        </mxCell>
        <mxCell id="oR9qkToTt6fAtuaVTWsN-13" value="Gerer la liste des utilisateur" style="ellipse;whiteSpace=wrap;html=1;" parent="1" vertex="1">
          <mxGeometry x="195" y="5280" width="184" height="40" as="geometry" />
        </mxCell>
        <mxCell id="oR9qkToTt6fAtuaVTWsN-14" style="edgeStyle=orthogonalEdgeStyle;rounded=0;orthogonalLoop=1;jettySize=auto;html=1;exitX=0.5;exitY=1;exitDx=0;exitDy=0;" parent="1" source="oR9qkToTt6fAtuaVTWsN-9" target="oR9qkToTt6fAtuaVTWsN-9" edge="1">
          <mxGeometry relative="1" as="geometry" />
        </mxCell>
        <mxCell id="oR9qkToTt6fAtuaVTWsN-15" value="" style="endArrow=none;html=1;rounded=0;entryX=0;entryY=0.5;entryDx=0;entryDy=0;exitX=0.75;exitY=0.1;exitDx=0;exitDy=0;exitPerimeter=0;" parent="1" source="oR9qkToTt6fAtuaVTWsN-7" target="oR9qkToTt6fAtuaVTWsN-8" edge="1">
          <mxGeometry width="50" height="50" relative="1" as="geometry">
            <mxPoint x="60" y="5130" as="sourcePoint" />
            <mxPoint x="110" y="5080" as="targetPoint" />
          </mxGeometry>
        </mxCell>
        <mxCell id="oR9qkToTt6fAtuaVTWsN-16" value="" style="endArrow=none;html=1;rounded=0;entryX=0;entryY=0.5;entryDx=0;entryDy=0;" parent="1" source="oR9qkToTt6fAtuaVTWsN-7" target="oR9qkToTt6fAtuaVTWsN-10" edge="1">
          <mxGeometry width="50" height="50" relative="1" as="geometry">
            <mxPoint x="110" y="5200" as="sourcePoint" />
            <mxPoint x="160" y="5150" as="targetPoint" />
          </mxGeometry>
        </mxCell>
        <mxCell id="oR9qkToTt6fAtuaVTWsN-17" value="" style="endArrow=none;html=1;rounded=0;entryX=0;entryY=0.5;entryDx=0;entryDy=0;exitX=1;exitY=0.3333333333333333;exitDx=0;exitDy=0;exitPerimeter=0;" parent="1" source="oR9qkToTt6fAtuaVTWsN-7" target="oR9qkToTt6fAtuaVTWsN-12" edge="1">
          <mxGeometry width="50" height="50" relative="1" as="geometry">
            <mxPoint x="100" y="5185" as="sourcePoint" />
            <mxPoint x="150" y="5135" as="targetPoint" />
          </mxGeometry>
        </mxCell>
        <mxCell id="oR9qkToTt6fAtuaVTWsN-18" value="" style="endArrow=none;html=1;rounded=0;entryX=0;entryY=0.5;entryDx=0;entryDy=0;" parent="1" source="oR9qkToTt6fAtuaVTWsN-7" target="oR9qkToTt6fAtuaVTWsN-9" edge="1">
          <mxGeometry width="50" height="50" relative="1" as="geometry">
            <mxPoint x="110" y="5200" as="sourcePoint" />
            <mxPoint x="160" y="5150" as="targetPoint" />
          </mxGeometry>
        </mxCell>
        <mxCell id="oR9qkToTt6fAtuaVTWsN-20" value="" style="endArrow=none;html=1;rounded=0;entryX=0;entryY=0.5;entryDx=0;entryDy=0;" parent="1" source="oR9qkToTt6fAtuaVTWsN-7" target="oR9qkToTt6fAtuaVTWsN-13" edge="1">
          <mxGeometry width="50" height="50" relative="1" as="geometry">
            <mxPoint x="110" y="5200" as="sourcePoint" />
            <mxPoint x="160" y="5150" as="targetPoint" />
          </mxGeometry>
        </mxCell>
        <mxCell id="oR9qkToTt6fAtuaVTWsN-21" style="edgeStyle=orthogonalEdgeStyle;rounded=0;orthogonalLoop=1;jettySize=auto;html=1;exitX=0.5;exitY=0;exitDx=0;exitDy=0;exitPerimeter=0;" parent="1" source="oR9qkToTt6fAtuaVTWsN-22" edge="1">
          <mxGeometry relative="1" as="geometry">
            <mxPoint x="40" y="5210" as="targetPoint" />
          </mxGeometry>
        </mxCell>
        <mxCell id="oR9qkToTt6fAtuaVTWsN-22" value="&lt;div&gt;Organisateur&lt;/div&gt;&lt;div&gt;&lt;br&gt;&lt;/div&gt;" style="shape=umlActor;verticalLabelPosition=bottom;verticalAlign=top;html=1;outlineConnect=0;" parent="1" vertex="1">
          <mxGeometry x="20" y="5410" width="40" height="60" as="geometry" />
        </mxCell>
        <mxCell id="oR9qkToTt6fAtuaVTWsN-24" value="&lt;font style=&quot;font-size: 14px;&quot;&gt;Consulter les statistiques des ventes &lt;/font&gt;" style="ellipse;whiteSpace=wrap;html=1;" parent="1" vertex="1">
          <mxGeometry x="175" y="5390" width="242.5" height="30" as="geometry" />
        </mxCell>
        <mxCell id="oR9qkToTt6fAtuaVTWsN-25" value="&lt;font style=&quot;font-size: 14px;&quot;&gt;Gestion d&#39;évenements&lt;/font&gt;" style="ellipse;whiteSpace=wrap;html=1;" parent="1" vertex="1">
          <mxGeometry x="202" y="5440" width="170" height="30" as="geometry" />
        </mxCell>
        <mxCell id="oR9qkToTt6fAtuaVTWsN-26" value="&lt;font style=&quot;font-size: 14px;&quot;&gt;Consulter des messages  &lt;/font&gt;" style="ellipse;whiteSpace=wrap;html=1;" parent="1" vertex="1">
          <mxGeometry x="175" y="5490" width="195" height="30" as="geometry" />
        </mxCell>
        <mxCell id="oR9qkToTt6fAtuaVTWsN-27" value="&lt;font style=&quot;font-size: 14px;&quot;&gt;Gerer compte superviseur&lt;/font&gt;" style="ellipse;whiteSpace=wrap;html=1;" parent="1" vertex="1">
          <mxGeometry x="185" y="5540" width="180" height="30" as="geometry" />
        </mxCell>
        <mxCell id="oR9qkToTt6fAtuaVTWsN-28" value="" style="endArrow=none;html=1;rounded=0;entryX=0.006;entryY=0.291;entryDx=0;entryDy=0;entryPerimeter=0;" parent="1" target="oR9qkToTt6fAtuaVTWsN-25" edge="1">
          <mxGeometry width="50" height="50" relative="1" as="geometry">
            <mxPoint x="60" y="5440" as="sourcePoint" />
            <mxPoint x="202.5" y="5560" as="targetPoint" />
          </mxGeometry>
        </mxCell>
        <mxCell id="oR9qkToTt6fAtuaVTWsN-29" value="" style="endArrow=none;html=1;rounded=0;entryX=0;entryY=0.5;entryDx=0;entryDy=0;" parent="1" target="oR9qkToTt6fAtuaVTWsN-24" edge="1">
          <mxGeometry width="50" height="50" relative="1" as="geometry">
            <mxPoint x="65" y="5420" as="sourcePoint" />
            <mxPoint x="188" y="5520" as="targetPoint" />
          </mxGeometry>
        </mxCell>
        <mxCell id="oR9qkToTt6fAtuaVTWsN-31" value="" style="endArrow=none;html=1;rounded=0;entryX=0.018;entryY=0.445;entryDx=0;entryDy=0;entryPerimeter=0;" parent="1" source="oR9qkToTt6fAtuaVTWsN-22" target="oR9qkToTt6fAtuaVTWsN-26" edge="1">
          <mxGeometry width="50" height="50" relative="1" as="geometry">
            <mxPoint x="65" y="5560" as="sourcePoint" />
            <mxPoint x="260" y="5510" as="targetPoint" />
          </mxGeometry>
        </mxCell>
        <mxCell id="oR9qkToTt6fAtuaVTWsN-32" value="" style="endArrow=none;html=1;rounded=0;entryX=0;entryY=0.5;entryDx=0;entryDy=0;" parent="1" source="oR9qkToTt6fAtuaVTWsN-22" target="oR9qkToTt6fAtuaVTWsN-27" edge="1">
          <mxGeometry width="50" height="50" relative="1" as="geometry">
            <mxPoint x="65" y="5570" as="sourcePoint" />
            <mxPoint x="310" y="5630" as="targetPoint" />
          </mxGeometry>
        </mxCell>
        <mxCell id="oR9qkToTt6fAtuaVTWsN-33" value="superviseur" style="shape=umlActor;verticalLabelPosition=bottom;verticalAlign=top;html=1;outlineConnect=0;" parent="1" vertex="1">
          <mxGeometry x="20" y="5680" width="35" height="70" as="geometry" />
        </mxCell>
        <mxCell id="oR9qkToTt6fAtuaVTWsN-34" value="Consulter la liste des evenements supervisé" style="ellipse;whiteSpace=wrap;html=1;" parent="1" vertex="1">
          <mxGeometry x="157.5" y="5650" width="250" height="40" as="geometry" />
        </mxCell>
        <mxCell id="oR9qkToTt6fAtuaVTWsN-35" value="Verfier les reservations des clients avec Qr reader" style="ellipse;whiteSpace=wrap;html=1;" parent="1" vertex="1">
          <mxGeometry x="137.5" y="5730" width="280" height="50" as="geometry" />
        </mxCell>
        <mxCell id="oR9qkToTt6fAtuaVTWsN-36" value="" style="endArrow=none;html=1;rounded=0;entryX=0;entryY=0.5;entryDx=0;entryDy=0;" parent="1" source="oR9qkToTt6fAtuaVTWsN-33" target="oR9qkToTt6fAtuaVTWsN-35" edge="1">
          <mxGeometry width="50" height="50" relative="1" as="geometry">
            <mxPoint x="220" y="5880" as="sourcePoint" />
            <mxPoint x="270" y="5830" as="targetPoint" />
          </mxGeometry>
        </mxCell>
        <mxCell id="oR9qkToTt6fAtuaVTWsN-37" value="" style="endArrow=none;html=1;rounded=0;entryX=0;entryY=0.5;entryDx=0;entryDy=0;" parent="1" source="oR9qkToTt6fAtuaVTWsN-33" target="oR9qkToTt6fAtuaVTWsN-34" edge="1">
          <mxGeometry width="50" height="50" relative="1" as="geometry">
            <mxPoint x="100" y="5810" as="sourcePoint" />
            <mxPoint x="150" y="5760" as="targetPoint" />
          </mxGeometry>
        </mxCell>
        <mxCell id="oR9qkToTt6fAtuaVTWsN-38" value="s&#39;authentifier" style="ellipse;whiteSpace=wrap;html=1;" parent="1" vertex="1">
          <mxGeometry x="580" y="5260" width="120" height="40" as="geometry" />
        </mxCell>
        <mxCell id="oR9qkToTt6fAtuaVTWsN-39" value="&amp;lt;&amp;lt;include&amp;gt;&amp;gt;" style="html=1;verticalAlign=bottom;labelBackgroundColor=none;endArrow=open;endFill=0;dashed=1;rounded=0;exitX=1;exitY=0.5;exitDx=0;exitDy=0;entryX=0.788;entryY=0.1;entryDx=0;entryDy=0;entryPerimeter=0;" parent="1" source="oR9qkToTt6fAtuaVTWsN-8" target="oR9qkToTt6fAtuaVTWsN-38" edge="1">
          <mxGeometry width="160" relative="1" as="geometry">
            <mxPoint x="390" y="5100" as="sourcePoint" />
            <mxPoint x="550" y="5100" as="targetPoint" />
            <Array as="points">
              <mxPoint x="670" y="5055" />
            </Array>
          </mxGeometry>
        </mxCell>
        <mxCell id="oR9qkToTt6fAtuaVTWsN-40" value="&amp;lt;&amp;lt;include&amp;gt;&amp;gt;" style="html=1;verticalAlign=bottom;labelBackgroundColor=none;endArrow=open;endFill=0;dashed=1;rounded=0;entryX=0.5;entryY=0;entryDx=0;entryDy=0;" parent="1" target="oR9qkToTt6fAtuaVTWsN-38" edge="1">
          <mxGeometry width="160" relative="1" as="geometry">
            <mxPoint x="345" y="5184.64" as="sourcePoint" />
            <mxPoint x="505" y="5184.64" as="targetPoint" />
            <Array as="points">
              <mxPoint x="640" y="5180" />
            </Array>
          </mxGeometry>
        </mxCell>
        <mxCell id="oR9qkToTt6fAtuaVTWsN-41" value="&amp;lt;&amp;lt;include&amp;gt;&amp;gt;" style="html=1;verticalAlign=bottom;labelBackgroundColor=none;endArrow=open;endFill=0;dashed=1;rounded=0;exitX=1;exitY=0.5;exitDx=0;exitDy=0;entryX=0.615;entryY=-0.043;entryDx=0;entryDy=0;entryPerimeter=0;" parent="1" source="oR9qkToTt6fAtuaVTWsN-12" target="oR9qkToTt6fAtuaVTWsN-38" edge="1">
          <mxGeometry width="160" relative="1" as="geometry">
            <mxPoint x="384" y="5140" as="sourcePoint" />
            <mxPoint x="544" y="5140" as="targetPoint" />
            <Array as="points">
              <mxPoint x="654" y="5120" />
            </Array>
          </mxGeometry>
        </mxCell>
        <mxCell id="oR9qkToTt6fAtuaVTWsN-42" value="&amp;lt;&amp;lt;include&amp;gt;&amp;gt;" style="html=1;verticalAlign=bottom;labelBackgroundColor=none;endArrow=open;endFill=0;dashed=1;rounded=0;entryX=0.35;entryY=0.028;entryDx=0;entryDy=0;entryPerimeter=0;" parent="1" target="oR9qkToTt6fAtuaVTWsN-38" edge="1">
          <mxGeometry width="160" relative="1" as="geometry">
            <mxPoint x="325" y="5244.64" as="sourcePoint" />
            <mxPoint x="610" y="5240" as="targetPoint" />
            <Array as="points">
              <mxPoint x="622" y="5245" />
            </Array>
          </mxGeometry>
        </mxCell>
        <mxCell id="oR9qkToTt6fAtuaVTWsN-44" value="&amp;lt;&amp;lt;include&amp;gt;&amp;gt;" style="html=1;verticalAlign=bottom;labelBackgroundColor=none;endArrow=open;endFill=0;dashed=1;rounded=0;exitX=1;exitY=0.5;exitDx=0;exitDy=0;entryX=0.092;entryY=0.818;entryDx=0;entryDy=0;entryPerimeter=0;" parent="1" source="oR9qkToTt6fAtuaVTWsN-13" target="oR9qkToTt6fAtuaVTWsN-38" edge="1">
          <mxGeometry width="160" relative="1" as="geometry">
            <mxPoint x="330" y="5330" as="sourcePoint" />
            <mxPoint x="490" y="5330" as="targetPoint" />
            <Array as="points">
              <mxPoint x="400" y="5293" />
            </Array>
          </mxGeometry>
        </mxCell>
        <mxCell id="oR9qkToTt6fAtuaVTWsN-46" value="&amp;lt;&amp;lt;include&amp;gt;&amp;gt;" style="html=1;verticalAlign=bottom;labelBackgroundColor=none;endArrow=open;endFill=0;dashed=1;rounded=0;exitX=1;exitY=0.5;exitDx=0;exitDy=0;entryX=0.286;entryY=0.992;entryDx=0;entryDy=0;entryPerimeter=0;" parent="1" source="oR9qkToTt6fAtuaVTWsN-24" target="oR9qkToTt6fAtuaVTWsN-38" edge="1">
          <mxGeometry x="-0.6845" y="8" width="160" relative="1" as="geometry">
            <mxPoint x="490" y="5470" as="sourcePoint" />
            <mxPoint x="650" y="5470" as="targetPoint" />
            <Array as="points">
              <mxPoint x="485" y="5390" />
            </Array>
            <mxPoint as="offset" />
          </mxGeometry>
        </mxCell>
        <mxCell id="oR9qkToTt6fAtuaVTWsN-47" value="&amp;lt;&amp;lt;include&amp;gt;&amp;gt;" style="html=1;verticalAlign=bottom;labelBackgroundColor=none;endArrow=open;endFill=0;dashed=1;rounded=0;exitX=1;exitY=0.5;exitDx=0;exitDy=0;entryX=0.419;entryY=1.087;entryDx=0;entryDy=0;entryPerimeter=0;" parent="1" source="oR9qkToTt6fAtuaVTWsN-25" target="oR9qkToTt6fAtuaVTWsN-38" edge="1">
          <mxGeometry x="-0.8111" width="160" relative="1" as="geometry">
            <mxPoint x="490" y="5549.41" as="sourcePoint" />
            <mxPoint x="660" y="5310" as="targetPoint" />
            <Array as="points">
              <mxPoint x="465" y="5440" />
            </Array>
            <mxPoint as="offset" />
          </mxGeometry>
        </mxCell>
        <mxCell id="oR9qkToTt6fAtuaVTWsN-48" value="&amp;lt;&amp;lt;include&amp;gt;&amp;gt;" style="html=1;verticalAlign=bottom;labelBackgroundColor=none;endArrow=open;endFill=0;dashed=1;rounded=0;exitX=1;exitY=0.5;exitDx=0;exitDy=0;entryX=0.566;entryY=1.057;entryDx=0;entryDy=0;entryPerimeter=0;" parent="1" source="oR9qkToTt6fAtuaVTWsN-26" target="oR9qkToTt6fAtuaVTWsN-38" edge="1">
          <mxGeometry x="-0.8757" y="5" width="160" relative="1" as="geometry">
            <mxPoint x="410" y="5634.41" as="sourcePoint" />
            <mxPoint x="650" y="5310" as="targetPoint" />
            <Array as="points">
              <mxPoint x="465" y="5480" />
            </Array>
            <mxPoint as="offset" />
          </mxGeometry>
        </mxCell>
        <mxCell id="oR9qkToTt6fAtuaVTWsN-49" value="&amp;lt;&amp;lt;include&amp;gt;&amp;gt;" style="html=1;verticalAlign=bottom;labelBackgroundColor=none;endArrow=open;endFill=0;dashed=1;rounded=0;exitX=1;exitY=0.5;exitDx=0;exitDy=0;entryX=1;entryY=1;entryDx=0;entryDy=0;" parent="1" source="oR9qkToTt6fAtuaVTWsN-35" target="oR9qkToTt6fAtuaVTWsN-38" edge="1">
          <mxGeometry x="-0.8443" y="10" width="160" relative="1" as="geometry">
            <mxPoint x="430" y="5870" as="sourcePoint" />
            <mxPoint x="590" y="5870" as="targetPoint" />
            <Array as="points">
              <mxPoint x="515" y="5755" />
            </Array>
            <mxPoint as="offset" />
          </mxGeometry>
        </mxCell>
        <mxCell id="oR9qkToTt6fAtuaVTWsN-50" value="&amp;lt;&amp;lt;include&amp;gt;&amp;gt;" style="html=1;verticalAlign=bottom;labelBackgroundColor=none;endArrow=open;endFill=0;dashed=1;rounded=0;entryX=0.772;entryY=1.028;entryDx=0;entryDy=0;entryPerimeter=0;exitX=1;exitY=0.5;exitDx=0;exitDy=0;" parent="1" source="oR9qkToTt6fAtuaVTWsN-34" target="oR9qkToTt6fAtuaVTWsN-38" edge="1">
          <mxGeometry x="-0.8457" y="20" width="160" relative="1" as="geometry">
            <mxPoint x="295" y="5770" as="sourcePoint" />
            <mxPoint x="455" y="5770" as="targetPoint" />
            <Array as="points">
              <mxPoint x="475" y="5670" />
            </Array>
            <mxPoint x="1" as="offset" />
          </mxGeometry>
        </mxCell>
        <mxCell id="oR9qkToTt6fAtuaVTWsN-51" value="&amp;lt;&amp;lt;include&amp;gt;&amp;gt;" style="html=1;verticalAlign=bottom;labelBackgroundColor=none;endArrow=open;endFill=0;dashed=1;rounded=0;exitX=1;exitY=0.5;exitDx=0;exitDy=0;entryX=0.694;entryY=1.028;entryDx=0;entryDy=0;entryPerimeter=0;" parent="1" source="oR9qkToTt6fAtuaVTWsN-27" target="oR9qkToTt6fAtuaVTWsN-38" edge="1">
          <mxGeometry x="-0.8548" y="2" width="160" relative="1" as="geometry">
            <mxPoint x="375" y="5694.41" as="sourcePoint" />
            <mxPoint x="535" y="5694.41" as="targetPoint" />
            <Array as="points">
              <mxPoint x="455" y="5540" />
            </Array>
            <mxPoint x="-1" as="offset" />
          </mxGeometry>
        </mxCell>
        <mxCell id="oR9qkToTt6fAtuaVTWsN-52" value="Deconnecter" style="ellipse;whiteSpace=wrap;html=1;" parent="1" vertex="1">
          <mxGeometry x="670" y="5360" width="120" height="20" as="geometry" />
        </mxCell>
        <mxCell id="oR9qkToTt6fAtuaVTWsN-53" value="&amp;lt;&amp;lt;extend&amp;gt;&amp;gt;" style="html=1;verticalAlign=bottom;labelBackgroundColor=none;endArrow=open;endFill=0;dashed=1;rounded=0;entryX=1;entryY=0.5;entryDx=0;entryDy=0;exitX=0.65;exitY=-0.2;exitDx=0;exitDy=0;exitPerimeter=0;" parent="1" source="oR9qkToTt6fAtuaVTWsN-52" target="oR9qkToTt6fAtuaVTWsN-38" edge="1">
          <mxGeometry x="0.5239" width="160" relative="1" as="geometry">
            <mxPoint x="680" y="5350" as="sourcePoint" />
            <mxPoint x="840" y="5350" as="targetPoint" />
            <Array as="points">
              <mxPoint x="750" y="5280" />
            </Array>
            <mxPoint as="offset" />
          </mxGeometry>
        </mxCell>
        <mxCell id="c4U2veaWLUC5YjbxtlW5-1" value="consulter liste ludification" style="ellipse;whiteSpace=wrap;html=1;" parent="1" vertex="1">
          <mxGeometry x="157.5" y="4970" width="170" height="30" as="geometry" />
        </mxCell>
        <mxCell id="c4U2veaWLUC5YjbxtlW5-3" value="Partager un évenement" style="html=1;overflow=block;blockSpacing=1;whiteSpace=wrap;ellipse;fontSize=13;spacing=3.8;strokeColor=#080808;strokeOpacity=100;rounded=1;absoluteArcSize=1;arcSize=9;strokeWidth=1;lucidId=KpitLF8Kvkj4;" parent="1" vertex="1">
          <mxGeometry x="162.5" y="4920" width="165" height="30" as="geometry" />
        </mxCell>
        <mxCell id="c4U2veaWLUC5YjbxtlW5-5" value="" style="endArrow=none;html=1;rounded=0;entryX=0;entryY=0.5;entryDx=0;entryDy=0;" parent="1" source="oR9qkToTt6fAtuaVTWsN-1" target="c4U2veaWLUC5YjbxtlW5-1" edge="1">
          <mxGeometry width="50" height="50" relative="1" as="geometry">
            <mxPoint x="95" y="4960" as="sourcePoint" />
            <mxPoint x="145" y="4910" as="targetPoint" />
            <Array as="points">
              <mxPoint x="100" y="4980" />
            </Array>
          </mxGeometry>
        </mxCell>
        <mxCell id="c4U2veaWLUC5YjbxtlW5-6" value="" style="endArrow=none;html=1;rounded=0;entryX=0;entryY=0.5;entryDx=0;entryDy=0;" parent="1" source="oR9qkToTt6fAtuaVTWsN-1" target="c4U2veaWLUC5YjbxtlW5-3" edge="1">
          <mxGeometry width="50" height="50" relative="1" as="geometry">
            <mxPoint x="125" y="5040" as="sourcePoint" />
            <mxPoint x="175" y="4990" as="targetPoint" />
            <Array as="points">
              <mxPoint x="120" y="4935" />
            </Array>
          </mxGeometry>
        </mxCell>
        <mxCell id="c4U2veaWLUC5YjbxtlW5-7" value="Gérer Listes de Favoris " style="ellipse;whiteSpace=wrap;html=1;" parent="1" vertex="1">
          <mxGeometry x="179" y="4870" width="140" height="30" as="geometry" />
        </mxCell>
        <mxCell id="c4U2veaWLUC5YjbxtlW5-8" value="" style="endArrow=none;html=1;rounded=0;entryX=0;entryY=0.5;entryDx=0;entryDy=0;" parent="1" source="oR9qkToTt6fAtuaVTWsN-1" target="c4U2veaWLUC5YjbxtlW5-7" edge="1">
          <mxGeometry width="50" height="50" relative="1" as="geometry">
            <mxPoint x="135" y="5070" as="sourcePoint" />
            <mxPoint x="185" y="5020" as="targetPoint" />
            <Array as="points">
              <mxPoint x="110" y="4885" />
            </Array>
          </mxGeometry>
        </mxCell>
      </root>
    </mxGraphModel>
  </diagram>
</mxfile>
